<mxfile host="app.diagrams.net" modified="2022-03-24T01:17:57.163Z" agent="5.0 (Windows NT 10.0; Win64; x64) AppleWebKit/537.36 (KHTML, like Gecko) Chrome/99.0.4844.82 Safari/537.36" etag="YEqNBUvVz1o8JPvb9XVC" version="17.2.1" type="github">
  <diagram id="C5RBs43oDa-KdzZeNtuy" name="Page-1">
    <mxGraphModel dx="1422" dy="762" grid="1" gridSize="12" guides="1" tooltips="1" connect="1" arrows="1" fold="1" page="1" pageScale="1" pageWidth="827" pageHeight="1169" math="0" shadow="0">
      <root>
        <mxCell id="WIyWlLk6GJQsqaUBKTNV-0" />
        <mxCell id="WIyWlLk6GJQsqaUBKTNV-1" parent="WIyWlLk6GJQsqaUBKTNV-0" />
        <mxCell id="kYPpWw-SlT8ve2qwS5Xv-0" value="Kaggle Dataset" style="ellipse;whiteSpace=wrap;html=1;aspect=fixed;" vertex="1" parent="WIyWlLk6GJQsqaUBKTNV-1">
          <mxGeometry x="60" y="143" width="99" height="99" as="geometry" />
        </mxCell>
        <mxCell id="kYPpWw-SlT8ve2qwS5Xv-15" style="edgeStyle=orthogonalEdgeStyle;rounded=0;orthogonalLoop=1;jettySize=auto;html=1;exitX=1;exitY=0.5;exitDx=0;exitDy=0;fontSize=14;fontColor=default;" edge="1" parent="WIyWlLk6GJQsqaUBKTNV-1" source="kYPpWw-SlT8ve2qwS5Xv-2">
          <mxGeometry relative="1" as="geometry">
            <mxPoint x="552" y="186" as="targetPoint" />
          </mxGeometry>
        </mxCell>
        <mxCell id="kYPpWw-SlT8ve2qwS5Xv-2" value="Databricks&lt;br&gt;" style="ellipse;whiteSpace=wrap;html=1;aspect=fixed;labelBackgroundColor=default;fontSize=14;fontColor=default;" vertex="1" parent="WIyWlLk6GJQsqaUBKTNV-1">
          <mxGeometry x="360" y="143" width="85" height="85" as="geometry" />
        </mxCell>
        <mxCell id="kYPpWw-SlT8ve2qwS5Xv-6" value="GCP Fastapi" style="ellipse;whiteSpace=wrap;html=1;aspect=fixed;labelBackgroundColor=default;fontSize=14;fontColor=default;fillColor=none;strokeColor=default;" vertex="1" parent="WIyWlLk6GJQsqaUBKTNV-1">
          <mxGeometry x="350.5" y="324" width="104" height="104" as="geometry" />
        </mxCell>
        <mxCell id="kYPpWw-SlT8ve2qwS5Xv-8" value="Dockerhub" style="ellipse;whiteSpace=wrap;html=1;aspect=fixed;labelBackgroundColor=#FFFFFF;fontSize=14;fontColor=default;strokeColor=default;fillColor=none;" vertex="1" parent="WIyWlLk6GJQsqaUBKTNV-1">
          <mxGeometry x="224" y="468" width="80" height="80" as="geometry" />
        </mxCell>
        <mxCell id="kYPpWw-SlT8ve2qwS5Xv-10" value="AutoML&lt;br&gt;experiment" style="ellipse;whiteSpace=wrap;html=1;aspect=fixed;labelBackgroundColor=#FFFFFF;fontSize=14;fontColor=default;strokeColor=default;fillColor=none;" vertex="1" parent="WIyWlLk6GJQsqaUBKTNV-1">
          <mxGeometry x="552" y="133" width="96" height="96" as="geometry" />
        </mxCell>
        <mxCell id="kYPpWw-SlT8ve2qwS5Xv-17" value="" style="endArrow=classic;html=1;rounded=0;fontSize=14;fontColor=default;entryX=-0.023;entryY=0.581;entryDx=0;entryDy=0;entryPerimeter=0;" edge="1" parent="WIyWlLk6GJQsqaUBKTNV-1" target="kYPpWw-SlT8ve2qwS5Xv-2">
          <mxGeometry width="50" height="50" relative="1" as="geometry">
            <mxPoint x="159" y="193" as="sourcePoint" />
            <mxPoint x="209" y="143" as="targetPoint" />
          </mxGeometry>
        </mxCell>
        <mxCell id="kYPpWw-SlT8ve2qwS5Xv-18" value="Ingest to DBFS&lt;br&gt;Create table" style="rounded=0;whiteSpace=wrap;html=1;labelBackgroundColor=#FFFFFF;fontSize=14;fontColor=default;strokeColor=none;fillColor=none;" vertex="1" parent="WIyWlLk6GJQsqaUBKTNV-1">
          <mxGeometry x="204" y="162.5" width="120" height="60" as="geometry" />
        </mxCell>
        <mxCell id="kYPpWw-SlT8ve2qwS5Xv-20" value="" style="endArrow=classic;html=1;rounded=0;fontSize=14;fontColor=default;entryX=0.99;entryY=0.231;entryDx=0;entryDy=0;entryPerimeter=0;" edge="1" parent="WIyWlLk6GJQsqaUBKTNV-1" target="kYPpWw-SlT8ve2qwS5Xv-6">
          <mxGeometry width="50" height="50" relative="1" as="geometry">
            <mxPoint x="588" y="229" as="sourcePoint" />
            <mxPoint x="516" y="287" as="targetPoint" />
          </mxGeometry>
        </mxCell>
        <mxCell id="kYPpWw-SlT8ve2qwS5Xv-22" value="Download&lt;br&gt;model" style="text;html=1;strokeColor=none;fillColor=none;align=center;verticalAlign=middle;whiteSpace=wrap;rounded=0;labelBackgroundColor=#FFFFFF;fontSize=14;fontColor=default;" vertex="1" parent="WIyWlLk6GJQsqaUBKTNV-1">
          <mxGeometry x="492" y="276" width="60" height="30" as="geometry" />
        </mxCell>
        <mxCell id="kYPpWw-SlT8ve2qwS5Xv-24" value="" style="endArrow=classic;html=1;rounded=0;fontSize=14;fontColor=default;" edge="1" parent="WIyWlLk6GJQsqaUBKTNV-1">
          <mxGeometry width="50" height="50" relative="1" as="geometry">
            <mxPoint x="372" y="420" as="sourcePoint" />
            <mxPoint x="312" y="480" as="targetPoint" />
          </mxGeometry>
        </mxCell>
      </root>
    </mxGraphModel>
  </diagram>
</mxfile>
